<svg width="50" height="50" viewBox="0 0 50 50" fill="none" xmlns="http://www.w3.org/2000/svg">
<path d="M24.5834 5C35.3992 5 44.1667 13.7675 44.1667 24.5833C44.1667 35.3992 35.3992 44.1667 24.5834 44.1667C21.1226 44.1723 17.7226 43.2564 14.7329 41.5131L5.00786 44.1667L7.65553 34.4377C5.91083 31.447 4.99425 28.0457 5.00003 24.5833C5.00003 13.7675 13.7675 5 24.5834 5ZM17.9094 15.3792L17.5177 15.3948C17.2641 15.4103 17.0163 15.4769 16.7892 15.5907C16.5768 15.711 16.3828 15.8614 16.2134 16.0372C15.9784 16.2585 15.8453 16.4504 15.7023 16.6364C14.978 17.5782 14.588 18.7344 14.5939 19.9225C14.5978 20.8821 14.8485 21.8162 15.2402 22.6896C16.0411 24.456 17.3591 26.3263 19.0981 28.0594C19.5172 28.4765 19.9284 28.8956 20.371 29.2853C22.5318 31.1877 25.1067 32.5597 27.891 33.292L29.0033 33.4624C29.3656 33.482 29.7279 33.4546 30.0922 33.437C30.6625 33.4075 31.2194 33.2531 31.7234 32.9846C31.9799 32.8525 32.2302 32.7087 32.4735 32.5537C32.4735 32.5537 32.5577 32.4989 32.7183 32.3775C32.9827 32.1817 33.1452 32.0426 33.3645 31.8135C33.5271 31.6451 33.6681 31.4473 33.7758 31.2221C33.9285 30.9029 34.0813 30.2938 34.1439 29.7866C34.1909 29.3989 34.1772 29.1874 34.1714 29.0562C34.1635 28.8466 33.9892 28.6293 33.7993 28.5372L32.6595 28.0261C32.6595 28.0261 30.9558 27.2839 29.9139 26.81C29.8049 26.7624 29.6881 26.7351 29.5693 26.7297C29.4353 26.7159 29.2999 26.731 29.1722 26.7739C29.0445 26.8168 28.9275 26.8865 28.829 26.9784C28.8192 26.9745 28.688 27.0861 27.2722 28.8016C27.1909 28.9108 27.0789 28.9933 26.9506 29.0387C26.8223 29.084 26.6833 29.0901 26.5515 29.0562C26.4239 29.022 26.2989 28.9788 26.1774 28.9269C25.9346 28.8251 25.8504 28.7859 25.6839 28.7154C24.56 28.2249 23.5194 27.5623 22.5996 26.7512C22.3528 26.5358 22.1237 26.3008 21.8887 26.0736C21.1183 25.3358 20.4468 24.5011 19.8912 23.5905L19.7757 23.4044C19.6927 23.2794 19.6256 23.1446 19.5759 23.003C19.5015 22.7151 19.6954 22.484 19.6954 22.484C19.6954 22.484 20.1712 21.9631 20.3925 21.6811C20.6079 21.4069 20.7901 21.1406 20.9076 20.9506C21.1387 20.5785 21.2111 20.1967 21.0897 19.901C20.5414 18.5615 19.9734 17.2278 19.3899 15.904C19.2743 15.6416 18.9316 15.4536 18.6202 15.4164C18.5145 15.4046 18.4087 15.3929 18.303 15.385C18.04 15.372 17.7765 15.3746 17.5138 15.3929L17.9074 15.3772L17.9094 15.3792Z" fill="#0D3B3B"/>
</svg>
