<svg width="130" height="150" viewBox="0 0 130 150" fill="none" xmlns="http://www.w3.org/2000/svg">
<g id="g12">
<g id="g18">
<path id="path20" d="M129.311 85.7712C129.295 87.7643 129.184 89.7595 128.979 91.7466C128.774 93.7337 128.478 95.7133 128.086 97.6761C127.301 101.601 126.139 105.457 124.622 109.173C121.59 116.61 117.113 123.47 111.527 129.285C105.946 135.107 99.2409 139.869 91.8786 143.235C84.5183 146.604 76.4986 148.558 68.4002 148.955C67.3884 149.007 66.3751 149.035 65.3618 149.041C64.3485 149.045 63.3352 149.024 62.3219 148.981C60.2968 148.894 58.2742 148.715 56.2632 148.441C52.2428 147.89 48.2733 146.956 44.4251 145.661C40.5788 144.36 36.8548 142.696 33.3211 140.697C29.7894 138.695 26.4414 136.368 23.347 133.741C17.1535 128.496 11.9542 122.083 8.12408 114.935C6.20399 111.363 4.63277 107.607 3.42205 103.74C2.21385 99.8738 1.37473 95.894 0.919823 91.8744C0.461384 87.8547 0.386657 83.8002 0.681007 79.7735C0.975357 75.7468 1.65292 71.7504 2.69653 67.8564C3.74467 63.9635 5.15887 60.174 6.91941 56.5568C7.79742 54.7484 8.76226 52.9824 9.80789 51.2684C10.854 49.5539 11.9784 47.8894 13.1805 46.2835C26.8585 28.0133 45.864 22.1171 56.5848 20.2704C60.1079 19.6635 63.7548 19.7337 67.3082 19.9836C70.8802 20.235 74.469 20.6965 77.9633 21.4921C79.5033 21.8425 81.0699 22.0686 82.6255 22.3372C89.8989 23.5948 98.6673 24.7974 107.698 19.7766C107.038 20.1431 106.283 20.3814 105.564 20.595C104.173 21.009 102.737 21.2674 101.298 21.4411C99.0667 21.7097 96.8118 21.7678 94.5671 21.7031C91.3727 21.6107 88.1873 21.2664 85.0318 20.7732C83.0466 20.4622 81.0709 20.0906 79.1059 19.6711C74.6861 18.727 70.342 17.4412 65.7915 17.3326C64.1905 17.2948 62.5935 17.3876 60.9991 17.5204C60.7542 17.5437 60.5093 17.5674 60.266 17.5987C62.6263 13.572 65.4078 9.34279 68.9152 6.61758C72.4222 3.89391 76.485 1.7523 80.8755 1.08237C86.09 0.287735 91.4045 1.60489 96.3463 3.45064C101.288 5.29587 106.035 7.67981 111.101 9.15347C116.165 10.6261 121.728 11.132 126.637 9.20244C122.245 17.4023 117.231 25.5001 110.066 31.4332C102.9 37.3662 93.2039 40.88 84.1538 38.7258C74.6573 36.4646 69.5579 25.2901 63.5689 22.9506C61.6059 22.1833 59.748 21.9056 57.7476 22.159C57.5123 22.1888 57.275 22.2262 57.0357 22.2706C55.7336 22.4826 54.439 22.7366 53.1541 23.0259C51.2653 23.454 49.3992 23.9715 47.563 24.5712C45.7257 25.1685 43.9192 25.854 42.1506 26.6209C38.6143 28.1557 35.225 30.008 32.0427 32.1556C25.6735 36.4454 20.1318 41.9039 15.7636 48.1535C14.6725 49.716 13.6521 51.326 12.7095 52.9794C11.7663 54.6328 10.9035 56.3301 10.1184 58.0607C8.55222 61.5235 7.30818 65.1257 6.412 68.8096C5.51229 72.4915 4.96651 76.2552 4.76001 80.0345C4.65903 81.9242 4.6459 83.8189 4.71608 85.7086C4.78424 87.5982 4.94379 89.4829 5.18765 91.3559C6.15401 98.8484 8.54011 106.137 12.1662 112.742C13.0725 114.394 14.056 116.002 15.1117 117.562C16.1665 119.122 17.2924 120.633 18.4869 122.088C20.8766 124.999 23.5298 127.692 26.4106 130.114C32.1694 134.963 38.8279 138.734 45.9524 141.155C49.5123 142.37 53.1884 143.245 56.915 143.778C60.6411 144.309 64.4207 144.494 68.1867 144.338C71.9521 144.181 75.7029 143.677 79.376 142.829C83.0486 141.979 86.6469 140.792 90.1019 139.272C97.0183 136.241 103.37 131.901 108.741 126.551C114.116 121.205 118.506 114.848 121.597 107.886C123.144 104.405 124.367 100.775 125.247 97.0582C126.124 93.3404 126.657 89.5338 126.841 85.703C127.204 78.0398 126.182 70.2807 123.74 62.9376C123.132 61.101 122.437 59.2916 121.658 57.5165C120.883 55.7389 120.024 53.9956 119.083 52.2948C117.209 48.8865 115.011 45.6474 112.544 42.6087C117.915 48.3029 122.201 55.0836 125.068 62.4595C125.789 64.3017 126.414 66.1833 126.952 68.0912C127.49 70 127.94 71.9351 128.295 73.8899C129.004 77.8005 129.34 81.7843 129.311 85.7712Z" fill="#A0B940"/>
</g>
<g id="g22">
<path id="path24" d="M20.3628 53.8306H35.8957V57.9114H24.8513V62.2521H34.5845V66.3323H24.8513V74.2288H20.3628V53.8306Z" fill="#1E727A"/>
</g>
<g id="g26">
<path id="path28" d="M47.3518 63.7381C49.5375 63.7381 50.7906 62.5724 50.7906 60.8534V60.7953C50.7906 58.8723 49.4502 57.8808 47.2645 57.8808H42.8063V63.7381H47.3518ZM38.3179 53.8304H47.6432C50.2368 53.8304 52.2478 54.5599 53.5882 55.8998C54.7252 57.0367 55.3372 58.6391 55.3372 60.5621V60.6201C55.3372 63.9133 53.559 65.9817 50.9658 66.9445L55.9491 74.229H50.7033L46.332 67.7012H46.2739H42.8063V74.229H38.3179V53.8304Z" fill="#1E727A"/>
</g>
<g id="g30">
<path id="path32" d="M58.2266 53.8306H73.6131V57.823H62.6847V61.9618H72.3019V65.9527H62.6847V70.2369H73.7595V74.2288H58.2266V53.8306Z" fill="#1E727A"/>
</g>
<g id="g34">
<path id="path36" d="M75.7017 71.0555L78.2806 67.9678C80.0654 69.441 81.935 70.376 84.2015 70.376C85.9862 70.376 87.0637 69.6681 87.0637 68.5065V68.4499C87.0637 67.3443 86.3836 66.7779 83.069 65.9277C79.0743 64.9079 76.4953 63.8028 76.4953 59.8649V59.8083C76.4953 56.2102 79.3858 53.8304 83.4371 53.8304C86.3276 53.8304 88.7919 54.7371 90.8029 56.3526L88.5369 59.6392C86.7799 58.421 85.0517 57.6839 83.3805 57.6839C81.7083 57.6839 80.8298 58.4493 80.8298 59.412V59.4686C80.8298 60.7716 81.68 61.1972 85.1093 62.0756C89.1322 63.1232 91.3982 64.5681 91.3982 68.0243V68.0819C91.3982 72.0198 88.3946 74.229 84.1166 74.229C81.1131 74.229 78.0817 73.1804 75.7017 71.0555Z" fill="#1E727A"/>
</g>
<g id="g38">
<path id="path40" d="M94.0791 53.8306H98.5666V61.9022H106.843V53.8306H111.331V74.2288H106.843V66.041H98.5666V74.2288H94.0791V53.8306Z" fill="#1E727A"/>
</g>
<g id="g42">
<path id="path44" d="M20.3628 112.334L25.9176 107.04C28.4329 109.871 31.0533 111.442 34.7738 111.442C37.8133 111.442 39.9621 109.714 39.9621 106.988V106.884C39.9621 103.897 37.2897 102.221 32.7821 102.221H29.4281L28.1709 97.0857L36.9226 88.2821H22.5116V81.3661H47.2976V87.444L38.0218 96.2997C43.001 97.1377 47.8742 99.7579 47.8742 106.569V106.674C47.8742 113.591 42.843 118.674 34.6683 118.674C28.0664 118.674 23.5077 116.054 20.3628 112.334Z" fill="#1E727A"/>
</g>
<g id="g46">
<path id="path48" d="M72.4442 106.555V106.451C72.4442 103.413 70.0752 101.198 66.1598 101.198C62.2454 101.198 59.978 103.361 59.978 106.4V106.503C59.978 109.542 62.3479 111.86 66.2633 111.86C70.1777 111.86 72.4442 109.645 72.4442 106.555ZM56.166 114.797C53.5391 112.17 51.8901 108.306 51.8901 101.146V101.044C51.8901 89.9168 56.9385 81.3661 67.7058 81.3661C72.5992 81.3661 75.7936 82.8084 78.988 85.3327L74.8146 91.4616C72.4442 89.6598 70.5382 88.5779 67.4478 88.5779C62.9664 88.5779 60.6989 92.1831 60.1845 96.9221C61.9874 95.7372 64.0999 94.6043 67.6533 94.6043C74.8146 94.6043 80.3265 98.571 80.3265 106.091V106.195C80.3265 113.561 74.4026 118.66 66.5718 118.66C61.8849 118.66 58.6905 117.321 56.166 114.797Z" fill="#1E727A"/>
</g>
<g id="g50">
<path id="path52" d="M83.6621 113.172L88.5353 107.355C91.3132 109.871 94.0381 111.338 97.2875 111.338C101.06 111.338 103.418 109.504 103.418 106.255V106.15C103.418 103.007 100.746 101.173 96.9205 101.173C94.6137 101.173 92.5184 101.801 90.7886 102.535L86.1255 99.4434L87.1726 81.3661H109.706V88.4401H94.0901L93.671 94.7801C95.1387 94.4135 96.4479 94.151 98.4922 94.151C105.619 94.151 111.331 97.6093 111.331 105.888V105.993C111.331 113.747 105.829 118.674 97.3916 118.674C91.5222 118.674 87.2261 116.578 83.6621 113.172Z" fill="#1E727A"/>
</g>
</g>
</svg>
