<svg width="50" height="50" viewBox="0 0 50 50" fill="none" xmlns="http://www.w3.org/2000/svg">
<path d="M21.206 46.9999C23.0337 46.9999 24.5153 45.5183 24.5153 43.6906C24.5153 41.863 23.0337 40.3813 21.206 40.3813C19.3783 40.3813 17.8967 41.863 17.8967 43.6906C17.8967 45.5183 19.3783 46.9999 21.206 46.9999Z" stroke="white" stroke-width="2" stroke-linecap="round" stroke-linejoin="round"/>
<path d="M36.0981 46.9999C37.9257 46.9999 39.4074 45.5183 39.4074 43.6906C39.4074 41.863 37.9257 40.3813 36.0981 40.3813C34.2704 40.3813 32.7888 41.863 32.7888 43.6906C32.7888 45.5183 34.2704 46.9999 36.0981 46.9999Z" stroke="white" stroke-width="2" stroke-linecap="round" stroke-linejoin="round"/>
<path d="M29.0821 14.0394C28.5743 11.9994 27.5878 10.1097 26.2045 8.52666C24.8211 6.94365 23.0806 5.71291 21.127 4.9363C19.1734 4.1597 17.0629 3.85957 14.9703 4.06076C12.8776 4.26195 10.863 4.95868 9.09316 6.09326C7.32331 7.22785 5.84916 8.76766 4.79273 10.5852C3.73629 12.4028 3.12796 14.4459 3.01809 16.5453C2.90822 18.6447 3.29997 20.7401 4.16092 22.658C5.02186 24.5759 6.32724 26.2612 7.96899 27.5743M16.2422 17.2825L21.2061 12.3186M22.8607 33.7958V30.4865H17.8968C16.1414 30.4865 14.458 31.1838 13.2168 32.425C11.9756 33.6662 11.2783 35.3497 11.2783 37.105V43.7236" stroke="white" stroke-width="2" stroke-linecap="round" stroke-linejoin="round"/>
<path d="M46.025 43.6906V27.1442C46.025 26.2666 45.6763 25.4248 45.0557 24.8042C44.4351 24.1836 43.5934 23.835 42.7157 23.835H26.1694C25.2917 23.835 24.45 24.1836 23.8294 24.8042C23.2088 25.4248 22.8601 26.2666 22.8601 27.1442V33.7628" stroke="white" stroke-width="2" stroke-linecap="round" stroke-linejoin="round"/>
</svg>
