<svg width="50" height="50" viewBox="0 0 50 50" fill="none" xmlns="http://www.w3.org/2000/svg">
<g clip-path="url(#clip0_14_722)">
<path d="M36.2369 12.8336C40.3137 14.5758 44.8988 14.7106 49.071 13.2111M13.2111 49.0709C14.7093 44.8856 14.5745 40.2894 12.8337 36.1991C11.4711 32.9423 11.1024 29.3551 11.7741 25.8892C12.4458 22.4233 14.1278 19.2336 16.6084 16.7216C19.1513 14.205 22.3823 12.4975 25.8942 11.8145" stroke="white" stroke-width="2" stroke-linecap="round" stroke-linejoin="round"/>
<path d="M23.0258 37.2565C26.5547 36.5677 29.7996 34.8467 32.3493 32.3116M32.3493 32.3116C34.8343 29.8023 36.5192 26.6124 37.1911 23.1454C37.863 19.6784 37.4917 16.09 36.124 12.834C34.4187 8.74284 34.3243 4.15792 35.8598 0M32.3493 32.3116L16.7597 16.722M0 35.8598C4.1739 34.3532 8.76625 34.5018 12.834 36.275" stroke="white" stroke-width="2" stroke-linecap="round" stroke-linejoin="round"/>
</g>
<defs>
<clipPath id="clip0_14_722">
<rect width="50" height="50" fill="white"/>
</clipPath>
</defs>
</svg>
