<svg width="50" height="50" viewBox="0 0 50 50" fill="none" xmlns="http://www.w3.org/2000/svg">
<path d="M24.0519 40.6027L24.0513 40.6022C16.1122 33.6559 12.1536 27.4207 12.1536 21.9732C12.1536 18.5732 13.5042 15.3125 15.9084 12.9084C18.3125 10.5042 21.5732 9.15357 24.9732 9.15357C26.6567 9.15357 28.3237 9.48516 29.8791 10.1294C31.4344 10.7737 32.8477 11.7179 34.0381 12.9084C35.2285 14.0988 36.1728 15.512 36.817 17.0673C37.4613 18.6227 37.7929 20.2897 37.7929 21.9732C37.7929 27.5495 33.6436 33.9508 25.3213 41.0991L24.0519 40.6027ZM24.0519 40.6027L24.6247 41.0988L24.6251 41.0991M24.0519 40.6027L24.6251 41.0991M24.6251 41.0991C24.722 41.1824 24.8455 41.2282 24.9732 41.2282M24.6251 41.0991L24.9732 41.2282M24.9732 41.2282C25.1009 41.2282 25.2244 41.1824 25.3213 41.0991L24.9732 41.2282ZM26.6262 42.6192L26.7239 42.733L26.6262 42.6192C26.1654 43.015 25.5779 43.2324 24.9705 43.2319C24.3631 43.2314 23.7761 43.013 23.316 42.6165C23.316 42.6164 23.3159 42.6164 23.3158 42.6163L22.7362 42.1133C14.3555 34.779 10.15 28.0909 10.15 21.9732C10.15 18.0419 11.7117 14.2715 14.4916 11.4916C17.2715 8.71173 21.0419 7.15 24.9732 7.15C28.9046 7.15 32.6749 8.71173 35.4548 11.4916C38.2347 14.2715 39.7964 18.0419 39.7964 21.9732C39.7964 28.2309 35.396 35.0877 26.6262 42.6192ZM24.9732 16.3643C26.4608 16.3643 27.8874 16.9552 28.9393 18.0071C29.9912 19.059 30.5821 20.4856 30.5821 21.9732C30.5821 23.4608 29.9912 24.8874 28.9393 25.9393C27.8874 26.9912 26.4608 27.5821 24.9732 27.5821C23.4856 27.5821 22.059 26.9912 21.0071 25.9393C19.9552 24.8874 19.3643 23.4608 19.3643 21.9732C19.3643 20.4856 19.9552 19.059 21.0071 18.0071C22.059 16.9552 23.4856 16.3643 24.9732 16.3643ZM24.9732 18.3679C24.017 18.3679 23.1 18.7477 22.4238 19.4238C21.7477 20.1 21.3679 21.017 21.3679 21.9732C21.3679 22.9294 21.7477 23.8465 22.4238 24.5226C23.1 25.1987 24.017 25.5786 24.9732 25.5786C25.9294 25.5786 26.8465 25.1987 27.5226 24.5226C28.1987 23.8465 28.5786 22.9294 28.5786 21.9732C28.5786 21.017 28.1987 20.1 27.5226 19.4238C26.8465 18.7477 25.9294 18.3679 24.9732 18.3679Z" fill="transparent" stroke="#fff" stroke-width="1.5"/>
</svg>
