<svg width="50" height="50" viewBox="0 0 50 50" fill="none" xmlns="http://www.w3.org/2000/svg">
<path d="M36.911 42.544L42.281 23.544C42.3651 23.2465 42.3791 22.9336 42.3219 22.6299C42.2646 22.3261 42.1378 22.0397 41.9513 21.7932C41.7648 21.5467 41.5236 21.3468 41.2468 21.2092C40.97 21.0715 40.6651 20.9999 40.356 21H28.875C28.7104 21 28.548 20.9629 28.3997 20.8914C28.2515 20.8199 28.1213 20.7159 28.0188 20.5871C27.9164 20.4583 27.8443 20.308 27.808 20.1475C27.7716 19.987 27.772 19.8204 27.809 19.66L28.309 17.496C28.767 15.511 28.914 13.466 28.745 11.436L28.653 10.333C28.5544 9.14969 28.0396 8.03962 27.2 7.2C26.432 6.43181 25.3903 6.00016 24.304 6H24.064C23.407 6 22.802 6.356 22.484 6.93L19.825 11.715C18.633 13.861 16.8561 15.6244 14.701 16.8L8.042 20.43C7.7263 20.6023 7.46289 20.8565 7.27951 21.1659C7.09614 21.4752 6.99958 21.8284 7 22.188V42C7 42.5304 7.21072 43.0391 7.58579 43.4142C7.96086 43.7893 8.46957 44 9 44H34.987C35.4225 43.9999 35.846 43.8576 36.1933 43.5948C36.5406 43.332 36.7925 42.9631 36.911 42.544Z" stroke="white" stroke-width="2" stroke-linecap="round" stroke-linejoin="round"/>
</svg>
