<svg width="50" height="50" viewBox="0 0 50 50" fill="none" xmlns="http://www.w3.org/2000/svg">
<path d="M38.3727 16.2918C38.3727 13.2093 38.3727 10.1269 38.1569 8.09247C38.1585 7.59387 38.0392 7.10232 37.8091 6.65998C37.579 6.21765 37.245 5.83773 36.8359 5.55282C36.4267 5.2679 35.9545 5.0865 35.4598 5.02418C34.9651 4.96185 34.4627 5.02046 33.9956 5.19497C27.3375 7.10609 13.7439 11.8839 8.04141 20.0832C1.87652 28.7757 6.62348 38.732 8.87367 42.6159C9.20152 43.1649 9.64892 43.6329 10.1826 43.9851C10.7163 44.3373 11.3225 44.5647 11.9561 44.6503C14.7944 45.1619 17.6933 45.245 20.5561 44.8969" stroke="white" stroke-width="2" stroke-linecap="round" stroke-linejoin="round"/>
<path d="M18.9222 29.947C15.8192 34.5199 12.9588 39.2528 10.353 44.1262M36.3997 45.0201C36.0611 45.1426 35.6903 45.1426 35.3517 45.0201C32.781 44.0018 30.5752 42.2351 29.0199 39.9489C27.4646 37.6627 26.6315 34.9622 26.6284 32.1972V26.4946C26.6321 26.2989 26.6755 26.1061 26.7559 25.9276C26.8362 25.7491 26.9519 25.5888 27.096 25.4563C27.24 25.3238 27.4094 25.2218 27.5939 25.1566C27.7784 25.0913 27.9743 25.0642 28.1696 25.0767H43.5818C43.9554 25.0846 44.3115 25.2365 44.5757 25.5007C44.84 25.7649 44.9919 26.121 44.9997 26.4946V32.1972C45.0065 34.948 44.1915 37.6382 42.6593 39.9229C41.127 42.2075 38.9474 43.9824 36.3997 45.0201Z" stroke="white" stroke-width="2" stroke-linecap="round" stroke-linejoin="round"/>
</svg>
